<svg width="131" height="64" viewBox="0 0 131 64" fill="none" xmlns="http://www.w3.org/2000/svg">
<path d="M66.4467 28.2108L60.6689 22.374L43.335 39.8842V47.6665H80.8914V39.3978L54.4092 39.8842L66.4467 28.2108Z" fill="white"/>
<mask id="mask0_126_58" style="mask-type:luminance" maskUnits="userSpaceOnUse" x="43" y="0" width="38" height="21">
<path d="M80.8914 0H43.335V20.4286H80.8914V0Z" fill="white"/>
</mask>
<g mask="url(#mask0_126_58)">
<path d="M62.5825 35.0205C70.6197 35.0205 77.1354 28.4876 77.1354 20.4287C77.1354 12.3699 70.6197 5.83691 62.5825 5.83691C54.545 5.83691 48.0293 12.3699 48.0293 20.4287C48.0293 28.4876 54.545 35.0205 62.5825 35.0205Z" stroke="white" stroke-width="8"/>
</g>
<path d="M109.781 28.2108L104.003 22.374L86.6689 39.8842V47.6665H124.226V39.3978L97.7436 39.8842L109.781 28.2108Z" fill="white"/>
<mask id="mask1_126_58" style="mask-type:luminance" maskUnits="userSpaceOnUse" x="86" y="0" width="39" height="21">
<path d="M124.225 0H86.6689V20.4286H124.225V0Z" fill="white"/>
</mask>
<g mask="url(#mask1_126_58)">
<path d="M105.916 35.0205C113.954 35.0205 120.47 28.4876 120.47 20.4287C120.47 12.3699 113.954 5.83691 105.916 5.83691C97.879 5.83691 91.3633 12.3699 91.3633 20.4287C91.3633 28.4876 97.879 35.0205 105.916 35.0205Z" stroke="white" stroke-width="8"/>
</g>
<path d="M23.1117 28.2108L17.3338 22.374L0 39.8842V47.6665H37.5564V39.3978L11.0744 39.8842L23.1117 28.2108Z" fill="white"/>
<mask id="mask2_126_58" style="mask-type:luminance" maskUnits="userSpaceOnUse" x="0" y="0" width="38" height="21">
<path d="M37.5564 0H0V20.4286H37.5564V0Z" fill="white"/>
</mask>
<g mask="url(#mask2_126_58)">
<path d="M19.2475 35.0205C27.285 35.0205 33.8006 28.4876 33.8006 20.4287C33.8006 12.3699 27.285 5.83691 19.2475 5.83691C11.21 5.83691 4.69434 12.3699 4.69434 20.4287C4.69434 28.4876 11.21 35.0205 19.2475 35.0205Z" stroke="white" stroke-width="8"/>
</g>
<path d="M126.37 7.33317C128.192 7.33317 129.67 5.84079 129.67 3.99984C129.67 2.15889 128.192 0.666504 126.37 0.666504C124.548 0.666504 123.07 2.15889 123.07 3.99984C123.07 5.84079 124.548 7.33317 126.37 7.33317Z" stroke="white"/>
<path d="M126.417 5.7229C125.949 5.7229 125.558 5.56114 125.244 5.23757C124.93 4.9109 124.772 4.50957 124.772 4.03357C124.772 3.56067 124.93 3.1609 125.244 2.83424C125.558 2.50757 125.957 2.34424 126.44 2.34424C126.72 2.34424 126.958 2.38779 127.152 2.4749C127.349 2.56201 127.533 2.68801 127.706 2.8529L127.341 3.27757C127.052 3.0069 126.75 2.87157 126.436 2.87157C126.128 2.87157 125.872 2.98357 125.669 3.20757C125.468 3.43157 125.368 3.7069 125.368 4.03357C125.368 4.35714 125.47 4.63247 125.673 4.85957C125.877 5.08357 126.131 5.19557 126.436 5.19557C126.62 5.19557 126.784 5.16134 126.925 5.0929C127.067 5.02134 127.213 4.914 127.364 4.7709L127.729 5.14424C127.547 5.33714 127.355 5.4818 127.152 5.57824C126.948 5.67467 126.703 5.7229 126.417 5.7229Z" fill="white"/>
<path d="M3.89558 62.0922C3.07593 62.0922 2.41059 61.8315 1.89957 61.3102C1.3936 60.7838 1.14062 60.1192 1.14062 59.3168C1.14062 58.5502 1.39867 57.8958 1.91475 57.3542C2.43589 56.8125 3.09111 56.5415 3.8804 56.5415C4.32564 56.5415 4.70511 56.6028 5.01882 56.7255C5.33252 56.8432 5.63356 57.0245 5.92196 57.2698L5.32998 57.9828C5.10735 57.7885 4.88221 57.6455 4.65452 57.5535C4.43189 57.4565 4.16121 57.4078 3.84246 57.4078C3.35673 57.4078 2.94691 57.5945 2.61297 57.9675C2.2841 58.3405 2.11966 58.7905 2.11966 59.3168C2.11966 59.8738 2.28663 60.3338 2.62056 60.6968C2.9545 61.0545 3.38963 61.2335 3.92594 61.2335C4.42179 61.2335 4.84931 61.0982 5.20855 60.8272V59.8228H3.85004V59.0025H6.11169V61.2565C5.46913 61.8135 4.73042 62.0922 3.89558 62.0922ZM8.38987 62.0002V56.6335H10.7578C11.3751 56.6335 11.8582 56.7895 12.2073 57.1012C12.5565 57.4078 12.731 57.8218 12.731 58.3432C12.731 58.7675 12.6172 59.1175 12.3895 59.3935C12.1618 59.6645 11.8532 59.8562 11.4636 59.9685L12.898 62.0002H11.7975L10.477 60.1295H9.32337V62.0002H8.38987ZM9.32337 59.2938H10.6895C11.0234 59.2938 11.289 59.2122 11.4864 59.0485C11.6837 58.8848 11.7823 58.6625 11.7823 58.3815C11.7823 58.0952 11.6862 57.8755 11.4939 57.7222C11.3017 57.5688 11.031 57.4922 10.6819 57.4922H9.32337V59.2938ZM14.4816 62.0002L16.8191 56.5952H17.6843L20.0218 62.0002H19.0352L18.4964 60.7045H15.9843L15.4378 62.0002H14.4816ZM16.3258 59.8688H18.1548L17.2365 57.7222L16.3258 59.8688ZM23.7733 62.0768C22.9283 62.0768 22.1896 61.7905 21.5572 61.2182L22.1188 60.5435C22.6501 61.0085 23.2091 61.2412 23.7961 61.2412C24.0845 61.2412 24.3121 61.1798 24.4791 61.0572C24.6511 60.9295 24.7372 60.7608 24.7372 60.5512C24.7372 60.3518 24.6562 60.1935 24.4943 60.0758C24.3324 59.9532 24.0136 59.8355 23.538 59.7232C22.9207 59.5748 22.4704 59.3885 22.1871 59.1635C21.9088 58.9335 21.7697 58.5835 21.7697 58.1132C21.7697 57.6532 21.9392 57.2802 22.2782 56.9938C22.6172 56.7025 23.0523 56.5568 23.5836 56.5568C24.3121 56.5568 24.9547 56.7818 25.5113 57.2315L25.0104 57.9445C24.5196 57.5765 24.0389 57.3925 23.5684 57.3925C23.3002 57.3925 23.0877 57.4538 22.9309 57.5765C22.7791 57.6992 22.7032 57.8552 22.7032 58.0442C22.7032 58.2538 22.7867 58.4172 22.9536 58.5348C23.1257 58.6472 23.4621 58.7648 23.963 58.8875C24.5499 59.0305 24.98 59.2222 25.2532 59.4625C25.5315 59.7028 25.6707 60.0402 25.6707 60.4745C25.6707 60.9702 25.4961 61.3612 25.147 61.6475C24.7979 61.9338 24.34 62.0768 23.7733 62.0768ZM27.831 62.0002V56.6335H31.7699V57.4768H28.7645V58.8722H31.4283V59.7155H28.7645V61.1568H31.8078V62.0002H27.831ZM35.8372 62.0768C34.9921 62.0768 34.2537 61.7905 33.6211 61.2182L34.1827 60.5435C34.714 61.0085 35.273 61.2412 35.86 61.2412C36.1484 61.2412 36.3761 61.1798 36.543 61.0572C36.7149 60.9295 36.8011 60.7608 36.8011 60.5512C36.8011 60.3518 36.7202 60.1935 36.5582 60.0758C36.3962 59.9532 36.0774 59.8355 35.6019 59.7232C34.9846 59.5748 34.5345 59.3885 34.251 59.1635C33.9729 58.9335 33.8336 58.5835 33.8336 58.1132C33.8336 57.6532 34.0032 57.2802 34.3421 56.9938C34.681 56.7025 35.1162 56.5568 35.6475 56.5568C36.3761 56.5568 37.0185 56.7818 37.5752 57.2315L37.0743 57.9445C36.5836 57.5765 36.1028 57.3925 35.6323 57.3925C35.364 57.3925 35.1515 57.4538 34.9948 57.5765C34.843 57.6992 34.7671 57.8552 34.7671 58.0442C34.7671 58.2538 34.8506 58.4172 35.0176 58.5348C35.1895 58.6472 35.526 58.7648 36.0269 58.8875C36.614 59.0305 37.0439 59.2222 37.3171 59.4625C37.5953 59.7028 37.7346 60.0402 37.7346 60.4745C37.7346 60.9702 37.56 61.3612 37.2109 61.6475C36.8618 61.9338 36.4038 62.0768 35.8372 62.0768ZM41.6801 62.0768C40.8353 62.0768 40.0965 61.7905 39.464 61.2182L40.0256 60.5435C40.5568 61.0085 41.1161 61.2412 41.7028 61.2412C41.9912 61.2412 42.2189 61.1798 42.3859 61.0572C42.5581 60.9295 42.6439 60.7608 42.6439 60.5512C42.6439 60.3518 42.5631 60.1935 42.4011 60.0758C42.2394 59.9532 41.9206 59.8355 41.4448 59.7232C40.8277 59.5748 40.3773 59.3885 40.0939 59.1635C39.8157 58.9335 39.6765 58.5835 39.6765 58.1132C39.6765 57.6532 39.8461 57.2802 40.185 56.9938C40.5242 56.7025 40.9591 56.5568 41.4903 56.5568C42.2189 56.5568 42.8617 56.7818 43.4181 57.2315L42.9171 57.9445C42.4265 57.5765 41.9457 57.3925 41.4752 57.3925C41.2072 57.3925 40.9947 57.4538 40.8376 57.5765C40.6859 57.6992 40.61 57.8552 40.61 58.0442C40.61 58.2538 40.6934 58.4172 40.8604 58.5348C41.0327 58.6472 41.3689 58.7648 41.8698 58.8875C42.4568 59.0305 42.8868 59.2222 43.16 59.4625C43.4385 59.7028 43.5774 60.0402 43.5774 60.4745C43.5774 60.9702 43.4029 61.3612 43.0538 61.6475C42.7046 61.9338 42.247 62.0768 41.6801 62.0768ZM45.5708 62.0002V60.9498H46.5802V62.0002H45.5708ZM48.8385 62.0002V56.6335H50.8194C51.6493 56.6335 52.327 56.8892 52.8533 57.4002C53.3797 57.9062 53.6426 58.5452 53.6426 59.3168C53.6426 60.0835 53.377 60.7225 52.8458 61.2335C52.3194 61.7445 51.644 62.0002 50.8194 62.0002H48.8385ZM49.772 61.1415H50.8194C51.3708 61.1415 51.8162 60.9728 52.1551 60.6355C52.494 60.2932 52.6636 59.8535 52.6636 59.3168C52.6636 58.7852 52.494 58.3482 52.1551 58.0058C51.8162 57.6635 51.3708 57.4922 50.8194 57.4922H49.772V61.1415ZM55.8376 62.0002V56.6335H59.7765V57.4768H56.7711V58.8722H59.435V59.7155H56.7711V61.1568H59.8145V62.0002H55.8376ZM63.8438 62.0768C62.9991 62.0768 62.2603 61.7905 61.6277 61.2182L62.1893 60.5435C62.7206 61.0085 63.2799 61.2412 63.8666 61.2412C64.155 61.2412 64.3827 61.1798 64.5496 61.0572C64.7219 60.9295 64.8077 60.7608 64.8077 60.5512C64.8077 60.3518 64.7268 60.1935 64.5648 60.0758C64.4031 59.9532 64.0844 59.8355 63.6085 59.7232C62.9915 59.5748 62.5411 59.3885 62.2576 59.1635C61.9795 58.9335 61.8402 58.5835 61.8402 58.1132C61.8402 57.6532 62.0098 57.2802 62.3487 56.9938C62.6879 56.7025 63.1228 56.5568 63.6541 56.5568C64.3827 56.5568 65.0255 56.7818 65.5818 57.2315L65.0809 57.9445C64.5902 57.5765 64.1095 57.3925 63.6389 57.3925C63.371 57.3925 63.1585 57.4538 63.0014 57.5765C62.8496 57.6992 62.7737 57.8552 62.7737 58.0442C62.7737 58.2538 62.8572 58.4172 63.0242 58.5348C63.1964 58.6472 63.5327 58.7648 64.0336 58.8875C64.6206 59.0305 65.0505 59.2222 65.3238 59.4625C65.6023 59.7028 65.7412 60.0402 65.7412 60.4745C65.7412 60.9702 65.5666 61.3612 65.2175 61.6475C64.8684 61.9338 64.4107 62.0768 63.8438 62.0768ZM67.9546 62.0002V56.6335H68.8881V62.0002H67.9546ZM73.8925 62.0922C73.0729 62.0922 72.4077 61.8315 71.8965 61.3102C71.3907 60.7838 71.1376 60.1192 71.1376 59.3168C71.1376 58.5502 71.3956 57.8958 71.9117 57.3542C72.4327 56.8125 73.0881 56.5415 73.8774 56.5415C74.3225 56.5415 74.702 56.6028 75.0158 56.7255C75.3296 56.8432 75.6305 57.0245 75.9189 57.2698L75.3269 57.9828C75.1042 57.7885 74.8792 57.6455 74.6515 57.5535C74.4288 57.4565 74.1582 57.4078 73.8394 57.4078C73.3537 57.4078 72.9439 57.5945 72.6099 57.9675C72.2809 58.3405 72.1166 58.7905 72.1166 59.3168C72.1166 59.8738 72.2836 60.3338 72.6175 60.6968C72.9515 61.0545 73.3867 61.2335 73.9229 61.2335C74.4188 61.2335 74.8462 61.0982 75.2055 60.8272V59.8228H73.847V59.0025H76.1086V61.2565C75.4662 61.8135 74.7274 62.0922 73.8925 62.0922ZM78.3868 62.0002V56.6335H79.252L82.098 60.3442V56.6335H83.0163V62.0002H82.2346L79.3051 58.1822V62.0002H78.3868ZM85.2783 62.0002V60.9498H86.2877V62.0002H85.2783ZM90.4055 62.0768C89.5604 62.0768 88.8219 61.7905 88.1894 61.2182L88.751 60.5435C89.2822 61.0085 89.8412 61.2412 90.4282 61.2412C90.7166 61.2412 90.9443 61.1798 91.1113 61.0572C91.2832 60.9295 91.3693 60.7608 91.3693 60.5512C91.3693 60.3518 91.2885 60.1935 91.1265 60.0758C90.9644 59.9532 90.6457 59.8355 90.1702 59.7232C89.5528 59.5748 89.1027 59.3885 88.8193 59.1635C88.5411 58.9335 88.4019 58.5835 88.4019 58.1132C88.4019 57.6532 88.5715 57.2802 88.9104 56.9938C89.2492 56.7025 89.6845 56.5568 90.2157 56.5568C90.9443 56.5568 91.5868 56.7818 92.1434 57.2315L91.6425 57.9445C91.1519 57.5765 90.6711 57.3925 90.2005 57.3925C89.9323 57.3925 89.7198 57.4538 89.563 57.5765C89.4113 57.6992 89.3354 57.8552 89.3354 58.0442C89.3354 58.2538 89.4188 58.4172 89.5858 58.5348C89.7577 58.6472 90.0943 58.7648 90.5952 58.8875C91.1822 59.0305 91.6122 59.2222 91.8854 59.4625C92.1636 59.7028 92.3028 60.0402 92.3028 60.4745C92.3028 60.9702 92.1283 61.3612 91.7792 61.6475C91.43 61.9338 90.972 62.0768 90.4055 62.0768ZM95.6573 62.0002V57.5075H93.9725V56.6335H98.2833V57.5075H96.5984V62.0002H95.6573ZM102.514 62.0845C101.811 62.0845 101.257 61.8825 100.852 61.4788C100.452 61.0752 100.252 60.4898 100.252 59.7232V56.6335H101.186V59.6848C101.186 60.1755 101.305 60.5538 101.542 60.8195C101.78 61.0852 102.109 61.2182 102.529 61.2182C102.949 61.2182 103.275 61.0905 103.508 60.8348C103.746 60.5792 103.865 60.2088 103.865 59.7232V56.6335H104.798V59.6772C104.798 60.4592 104.596 61.0572 104.191 61.4712C103.786 61.8802 103.227 62.0845 102.514 62.0845ZM107.142 62.0002V56.6335H109.123C109.953 56.6335 110.631 56.8892 111.157 57.4002C111.683 57.9062 111.946 58.5452 111.946 59.3168C111.946 60.0835 111.681 60.7225 111.149 61.2335C110.623 61.7445 109.948 62.0002 109.123 62.0002H107.142ZM108.076 61.1415H109.123C109.675 61.1415 110.12 60.9728 110.459 60.6355C110.798 60.2932 110.967 59.8535 110.967 59.3168C110.967 58.7852 110.798 58.3482 110.459 58.0058C110.12 57.6635 109.675 57.4922 109.123 57.4922H108.076V61.1415ZM114.194 62.0002V56.6335H115.128V62.0002H114.194ZM122.143 61.2795C121.617 61.8212 120.952 62.0922 120.147 62.0922C119.343 62.0922 118.68 61.8238 118.159 61.2872C117.638 60.7505 117.377 60.0938 117.377 59.3168C117.377 58.5502 117.641 57.8958 118.167 57.3542C118.693 56.8125 119.358 56.5415 120.163 56.5415C120.967 56.5415 121.63 56.8098 122.151 57.3465C122.672 57.8832 122.933 58.5398 122.933 59.3168C122.933 60.0835 122.67 60.7378 122.143 61.2795ZM118.865 60.6738C119.209 61.0418 119.642 61.2258 120.163 61.2258C120.684 61.2258 121.111 61.0418 121.445 60.6738C121.784 60.3058 121.954 59.8535 121.954 59.3168C121.954 58.7852 121.782 58.3355 121.438 57.9675C121.099 57.5945 120.669 57.4078 120.147 57.4078C119.626 57.4078 119.196 57.5918 118.857 57.9598C118.523 58.3278 118.356 58.7802 118.356 59.3168C118.356 59.8485 118.526 60.3008 118.865 60.6738Z" fill="white"/>
</svg>
