<svg width="397" height="192" viewBox="0 0 397 192" fill="none" xmlns="http://www.w3.org/2000/svg">
<path d="M201.368 84.6328L183.858 67.1226L131.327 119.653V143H245.143V118.194L164.888 119.653L201.368 84.6328Z" fill="white"/>
<g clip-path="url(#clip0_126_35)">
<path d="M189.658 105.061C214.015 105.061 233.761 85.4623 233.761 61.2858C233.761 37.1092 214.015 17.5103 189.658 17.5103C165.3 17.5103 145.554 37.1092 145.554 61.2858C145.554 85.4623 165.3 105.061 189.658 105.061Z" stroke="white" stroke-width="23"/>
</g>
<path d="M332.694 84.6328L315.184 67.1226L262.653 119.653V143H376.47V118.194L296.215 119.653L332.694 84.6328Z" fill="white"/>
<g clip-path="url(#clip1_126_35)">
<path d="M320.984 105.061C345.342 105.061 365.088 85.4623 365.088 61.2858C365.088 37.1092 345.342 17.5103 320.984 17.5103C296.626 17.5103 276.88 37.1092 276.88 61.2858C276.88 85.4623 296.626 105.061 320.984 105.061Z" stroke="white" stroke-width="23"/>
</g>
<path d="M70.0408 84.6328L52.5306 67.1226L0 119.653V143H113.816V118.194L33.5612 119.653L70.0408 84.6328Z" fill="white"/>
<g clip-path="url(#clip2_126_35)">
<path d="M58.3304 105.061C82.6883 105.061 102.434 85.4623 102.434 61.2858C102.434 37.1092 82.6883 17.5103 58.3304 17.5103C33.9725 17.5103 14.2266 37.1092 14.2266 61.2858C14.2266 85.4623 33.9725 105.061 58.3304 105.061Z" stroke="white" stroke-width="23"/>
</g>
<circle cx="386" cy="12" r="10" stroke="white" stroke-width="2"/>
<path d="M386.142 17.168C384.723 17.168 383.538 16.6827 382.586 15.712C381.634 14.732 381.158 13.528 381.158 12.1C381.158 10.6813 381.634 9.482 382.586 8.502C383.538 7.522 384.747 7.032 386.212 7.032C387.061 7.032 387.78 7.16267 388.368 7.424C388.965 7.68533 389.525 8.06333 390.048 8.558L388.942 9.832C388.065 9.02 387.15 8.614 386.198 8.614C385.265 8.614 384.49 8.95 383.874 9.622C383.267 10.294 382.964 11.12 382.964 12.1C382.964 13.0707 383.272 13.8967 383.888 14.578C384.504 15.25 385.274 15.586 386.198 15.586C386.758 15.586 387.253 15.4833 387.682 15.278C388.111 15.0633 388.555 14.7413 389.012 14.312L390.118 15.432C389.567 16.0107 388.984 16.4447 388.368 16.734C387.752 17.0233 387.01 17.168 386.142 17.168Z" fill="white"/>
<path d="M11.8058 186.276C9.32181 186.276 7.30547 185.494 5.75681 183.93C4.22347 182.351 3.45681 180.357 3.45681 177.95C3.45681 175.65 4.23881 173.687 5.80281 172.062C7.38214 170.437 9.36781 169.624 11.7598 169.624C13.1091 169.624 14.2591 169.808 15.2098 170.176C16.1605 170.529 17.0728 171.073 17.9468 171.809L16.1528 173.948C15.4781 173.365 14.7958 172.936 14.1058 172.66C13.4311 172.369 12.6108 172.223 11.6448 172.223C10.1728 172.223 8.93081 172.783 7.91881 173.902C6.92214 175.021 6.42381 176.371 6.42381 177.95C6.42381 179.621 6.92981 181.001 7.94181 182.09C8.95381 183.163 10.2725 183.7 11.8978 183.7C13.4005 183.7 14.6961 183.294 15.7848 182.481V179.468H11.6678V177.007H18.5218V183.769C16.5745 185.44 14.3358 186.276 11.8058 186.276ZM25.4259 186V169.9H32.6019C34.4726 169.9 35.9369 170.368 36.9949 171.303C38.0529 172.223 38.5819 173.465 38.5819 175.029C38.5819 176.302 38.2369 177.352 37.5469 178.18C36.8569 178.993 35.9216 179.568 34.7409 179.905L39.0879 186H35.7529L31.7509 180.388H28.2549V186H25.4259ZM28.2549 177.881H32.3949C33.4069 177.881 34.2119 177.636 34.8099 177.145C35.4079 176.654 35.7069 175.987 35.7069 175.144C35.7069 174.285 35.4156 173.626 34.8329 173.166C34.2503 172.706 33.4299 172.476 32.3719 172.476H28.2549V177.881ZM43.887 186L50.971 169.785H53.593L60.677 186H57.687L56.054 182.113H48.441L46.785 186H43.887ZM49.476 179.606H55.019L52.236 173.166L49.476 179.606ZM72.0459 186.23C69.4852 186.23 67.2465 185.371 65.3299 183.654L67.0319 181.63C68.6419 183.025 70.3362 183.723 72.1149 183.723C72.9889 183.723 73.6789 183.539 74.1849 183.171C74.7062 182.788 74.9669 182.282 74.9669 181.653C74.9669 181.055 74.7215 180.58 74.2309 180.227C73.7402 179.859 72.7742 179.506 71.3329 179.169C69.4622 178.724 68.0975 178.165 67.2389 177.49C66.3955 176.8 65.9739 175.75 65.9739 174.339C65.9739 172.959 66.4875 171.84 67.5149 170.981C68.5422 170.107 69.8609 169.67 71.4709 169.67C73.6789 169.67 75.6262 170.345 77.3129 171.694L75.7949 173.833C74.3075 172.729 72.8509 172.177 71.4249 172.177C70.6122 172.177 69.9682 172.361 69.4929 172.729C69.0329 173.097 68.8029 173.565 68.8029 174.132C68.8029 174.761 69.0559 175.251 69.5619 175.604C70.0832 175.941 71.1029 176.294 72.6209 176.662C74.3995 177.091 75.7029 177.666 76.5309 178.387C77.3742 179.108 77.7959 180.12 77.7959 181.423C77.7959 182.91 77.2669 184.083 76.2089 184.942C75.1509 185.801 73.7632 186.23 72.0459 186.23ZM84.3428 186V169.9H96.2798V172.43H87.1718V176.616H95.2448V179.146H87.1718V183.47H96.3948V186H84.3428ZM108.606 186.23C106.045 186.23 103.807 185.371 101.89 183.654L103.592 181.63C105.202 183.025 106.896 183.723 108.675 183.723C109.549 183.723 110.239 183.539 110.745 183.171C111.266 182.788 111.527 182.282 111.527 181.653C111.527 181.055 111.282 180.58 110.791 180.227C110.3 179.859 109.334 179.506 107.893 179.169C106.022 178.724 104.658 178.165 103.799 177.49C102.956 176.8 102.534 175.75 102.534 174.339C102.534 172.959 103.048 171.84 104.075 170.981C105.102 170.107 106.421 169.67 108.031 169.67C110.239 169.67 112.186 170.345 113.873 171.694L112.355 173.833C110.868 172.729 109.411 172.177 107.985 172.177C107.172 172.177 106.528 172.361 106.053 172.729C105.593 173.097 105.363 173.565 105.363 174.132C105.363 174.761 105.616 175.251 106.122 175.604C106.643 175.941 107.663 176.294 109.181 176.662C110.96 177.091 112.263 177.666 113.091 178.387C113.934 179.108 114.356 180.12 114.356 181.423C114.356 182.91 113.827 184.083 112.769 184.942C111.711 185.801 110.323 186.23 108.606 186.23ZM126.313 186.23C123.753 186.23 121.514 185.371 119.597 183.654L121.299 181.63C122.909 183.025 124.604 183.723 126.382 183.723C127.256 183.723 127.946 183.539 128.452 183.171C128.974 182.788 129.234 182.282 129.234 181.653C129.234 181.055 128.989 180.58 128.498 180.227C128.008 179.859 127.042 179.506 125.6 179.169C123.73 178.724 122.365 178.165 121.506 177.49C120.663 176.8 120.241 175.75 120.241 174.339C120.241 172.959 120.755 171.84 121.782 170.981C122.81 170.107 124.128 169.67 125.738 169.67C127.946 169.67 129.894 170.345 131.58 171.694L130.062 173.833C128.575 172.729 127.118 172.177 125.692 172.177C124.88 172.177 124.236 172.361 123.76 172.729C123.3 173.097 123.07 173.565 123.07 174.132C123.07 174.761 123.323 175.251 123.829 175.604C124.351 175.941 125.37 176.294 126.888 176.662C128.667 177.091 129.97 177.666 130.798 178.387C131.642 179.108 132.063 180.12 132.063 181.423C132.063 182.91 131.534 184.083 130.476 184.942C129.418 185.801 128.031 186.23 126.313 186.23ZM138.104 186V182.849H141.163V186H138.104ZM148.007 186V169.9H154.01C156.525 169.9 158.579 170.667 160.174 172.2C161.769 173.718 162.566 175.635 162.566 177.95C162.566 180.25 161.761 182.167 160.151 183.7C158.556 185.233 156.509 186 154.01 186H148.007ZM150.836 183.424H154.01C155.681 183.424 157.031 182.918 158.058 181.906C159.085 180.879 159.599 179.56 159.599 177.95C159.599 176.355 159.085 175.044 158.058 174.017C157.031 172.99 155.681 172.476 154.01 172.476H150.836V183.424ZM169.218 186V169.9H181.155V172.43H172.047V176.616H180.12V179.146H172.047V183.47H181.27V186H169.218ZM193.481 186.23C190.921 186.23 188.682 185.371 186.765 183.654L188.467 181.63C190.077 183.025 191.772 183.723 193.55 183.723C194.424 183.723 195.114 183.539 195.62 183.171C196.142 182.788 196.402 182.282 196.402 181.653C196.402 181.055 196.157 180.58 195.666 180.227C195.176 179.859 194.21 179.506 192.768 179.169C190.898 178.724 189.533 178.165 188.674 177.49C187.831 176.8 187.409 175.75 187.409 174.339C187.409 172.959 187.923 171.84 188.95 170.981C189.978 170.107 191.296 169.67 192.906 169.67C195.114 169.67 197.062 170.345 198.748 171.694L197.23 173.833C195.743 172.729 194.286 172.177 192.86 172.177C192.048 172.177 191.404 172.361 190.928 172.729C190.468 173.097 190.238 173.565 190.238 174.132C190.238 174.761 190.491 175.251 190.997 175.604C191.519 175.941 192.538 176.294 194.056 176.662C195.835 177.091 197.138 177.666 197.966 178.387C198.81 179.108 199.231 180.12 199.231 181.423C199.231 182.91 198.702 184.083 197.644 184.942C196.586 185.801 195.199 186.23 193.481 186.23ZM205.939 186V169.9H208.768V186H205.939ZM223.934 186.276C221.45 186.276 219.434 185.494 217.885 183.93C216.352 182.351 215.585 180.357 215.585 177.95C215.585 175.65 216.367 173.687 217.931 172.062C219.51 170.437 221.496 169.624 223.888 169.624C225.237 169.624 226.387 169.808 227.338 170.176C228.289 170.529 229.201 171.073 230.075 171.809L228.281 173.948C227.606 173.365 226.924 172.936 226.234 172.66C225.559 172.369 224.739 172.223 223.773 172.223C222.301 172.223 221.059 172.783 220.047 173.902C219.05 175.021 218.552 176.371 218.552 177.95C218.552 179.621 219.058 181.001 220.07 182.09C221.082 183.163 222.401 183.7 224.026 183.7C225.529 183.7 226.824 183.294 227.913 182.481V179.468H223.796V177.007H230.65V183.769C228.703 185.44 226.464 186.276 223.934 186.276ZM237.554 186V169.9H240.176L248.801 181.032V169.9H251.584V186H249.215L240.337 174.546V186H237.554ZM258.439 186V182.849H261.498V186H258.439ZM273.977 186.23C271.416 186.23 269.178 185.371 267.261 183.654L268.963 181.63C270.573 183.025 272.267 183.723 274.046 183.723C274.92 183.723 275.61 183.539 276.116 183.171C276.637 182.788 276.898 182.282 276.898 181.653C276.898 181.055 276.653 180.58 276.162 180.227C275.671 179.859 274.705 179.506 273.264 179.169C271.393 178.724 270.029 178.165 269.17 177.49C268.327 176.8 267.905 175.75 267.905 174.339C267.905 172.959 268.419 171.84 269.446 170.981C270.473 170.107 271.792 169.67 273.402 169.67C275.61 169.67 277.557 170.345 279.244 171.694L277.726 173.833C276.239 172.729 274.782 172.177 273.356 172.177C272.543 172.177 271.899 172.361 271.424 172.729C270.964 173.097 270.734 173.565 270.734 174.132C270.734 174.761 270.987 175.251 271.493 175.604C272.014 175.941 273.034 176.294 274.552 176.662C276.331 177.091 277.634 177.666 278.462 178.387C279.305 179.108 279.727 180.12 279.727 181.423C279.727 182.91 279.198 184.083 278.14 184.942C277.082 185.801 275.694 186.23 273.977 186.23ZM289.893 186V172.522H284.787V169.9H297.851V172.522H292.745V186H289.893ZM310.672 186.253C308.541 186.253 306.862 185.647 305.635 184.436C304.424 183.225 303.818 181.469 303.818 179.169V169.9H306.647V179.054C306.647 180.526 307.007 181.661 307.728 182.458C308.449 183.255 309.445 183.654 310.718 183.654C311.991 183.654 312.98 183.271 313.685 182.504C314.406 181.737 314.766 180.626 314.766 179.169V169.9H317.595V179.031C317.595 181.377 316.982 183.171 315.755 184.413C314.528 185.64 312.834 186.253 310.672 186.253ZM324.698 186V169.9H330.701C333.216 169.9 335.271 170.667 336.865 172.2C338.46 173.718 339.257 175.635 339.257 177.95C339.257 180.25 338.452 182.167 336.842 183.7C335.248 185.233 333.201 186 330.701 186H324.698ZM327.527 183.424H330.701C332.373 183.424 333.722 182.918 334.749 181.906C335.777 180.879 336.29 179.56 336.29 177.95C336.29 176.355 335.777 175.044 334.749 174.017C333.722 172.99 332.373 172.476 330.701 172.476H327.527V183.424ZM346.07 186V169.9H348.899V186H346.07ZM370.16 183.838C368.566 185.463 366.549 186.276 364.111 186.276C361.673 186.276 359.665 185.471 358.085 183.861C356.506 182.251 355.716 180.281 355.716 177.95C355.716 175.65 356.514 173.687 358.108 172.062C359.703 170.437 361.719 169.624 364.157 169.624C366.595 169.624 368.604 170.429 370.183 172.039C371.763 173.649 372.552 175.619 372.552 177.95C372.552 180.25 371.755 182.213 370.16 183.838ZM360.224 182.021C361.267 183.125 362.578 183.677 364.157 183.677C365.737 183.677 367.032 183.125 368.044 182.021C369.072 180.917 369.585 179.56 369.585 177.95C369.585 176.355 369.064 175.006 368.021 173.902C366.994 172.783 365.691 172.223 364.111 172.223C362.532 172.223 361.229 172.775 360.201 173.879C359.189 174.983 358.683 176.34 358.683 177.95C358.683 179.545 359.197 180.902 360.224 182.021Z" fill="white"/>
<defs>
<clipPath id="clip0_126_35">
<rect width="113.816" height="61.2857" fill="white" transform="translate(131.327)"/>
</clipPath>
<clipPath id="clip1_126_35">
<rect width="113.816" height="61.2857" fill="white" transform="translate(262.653)"/>
</clipPath>
<clipPath id="clip2_126_35">
<rect width="113.816" height="61.2857" fill="white"/>
</clipPath>
</defs>
</svg>
